<?xml version="1.0" encoding="UTF-8" standalone="no"?>
<!-- Created with Inkscape (http://www.inkscape.org/) -->

<svg
   version="1.1"
   id="svg1"
   width="188.97636"
   height="358.1972"
   viewBox="0 0 188.97636 358.1972"
   sodipodi:docname="limmidi_svarturloka1.svg"
   inkscape:version="1.4.3 (0d15f750, 2025-12-25)"
   xmlns:inkscape="http://www.inkscape.org/namespaces/inkscape"
   xmlns:sodipodi="http://sodipodi.sourceforge.net/DTD/sodipodi-0.dtd"
   xmlns="http://www.w3.org/2000/svg"
   xmlns:svg="http://www.w3.org/2000/svg">
  <defs
     id="defs1" />
  <sodipodi:namedview
     id="namedview1"
     pagecolor="#ffffff"
     bordercolor="#000000"
     borderopacity="0.25"
     inkscape:showpageshadow="2"
     inkscape:pageopacity="0.0"
     inkscape:pagecheckerboard="0"
     inkscape:deskcolor="#d1d1d1"
     inkscape:zoom="1.3445384"
     inkscape:cx="31.609361"
     inkscape:cy="208.62178"
     inkscape:window-width="1440"
     inkscape:window-height="900"
     inkscape:window-x="0"
     inkscape:window-y="0"
     inkscape:window-maximized="0"
     inkscape:current-layer="g1">
    <inkscape:page
       x="0"
       y="0"
       inkscape:label="1"
       id="page1"
       width="188.97636"
       height="358.1972"
       margin="0"
       bleed="0" />
  </sodipodi:namedview>
  <g
     id="g1"
     inkscape:groupmode="layer"
     inkscape:label="1">
    <path
       id="path1"
       d="m 64.754,267.629 c -2.52,-1.969 -3.18,-3.902 -2.449,-7.152 0.574,-2.528 0.527,-3.098 -0.332,-4.055 -0.547,-0.617 -0.996,-1.852 -0.996,-2.75 0,-1.621 -1.59,-4.914 -7.313,-15.125 -1.652,-2.953 -3.008,-5.688 -3.008,-6.082 0,-0.856 -3.293,-7.184 -6.64,-12.77 -1.332,-2.222 -3.266,-5.898 -4.293,-8.175 l -1.875,-4.137 -3.461,-1.379 c -3.199,-1.274 -3.457,-1.492 -3.399,-2.895 0.032,-0.836 0.434,-2.164 0.887,-2.957 0.793,-1.379 0.746,-1.504 -1.121,-2.918 -1.66,-1.254 -1.953,-1.804 -1.961,-3.683 C 28.781,189.926 25.535,183.52 20.027,176.25 16.359,171.406 10.547,160.961 7.609,153.926 7.203,152.945 6.652,151.742 6.391,151.254 6.125,150.762 5.438,149.359 4.859,148.133 4.281,146.91 2.953,144.164 1.91,142.035 l -1.898,-3.871 4.226,-2.809 c 8.496,-5.652 19.207,-13.546 20.5,-15.117 2.903,-3.511 5.953,-6.629 6.489,-6.629 0.589,0 6.488,-6.504 7.683,-8.464 1.383,-2.278 4.754,-6.981 6.699,-9.356 1.106,-1.348 2.02,-2.75 2.032,-3.117 0.011,-0.367 0.421,-1.059 0.91,-1.535 0.492,-0.473 0.894,-1.278 0.894,-1.782 0,-0.503 0.696,-1.917 1.539,-3.14 0.848,-1.223 2.188,-3.727 2.981,-5.567 0.789,-1.839 2,-4.347 2.687,-5.574 0.684,-1.226 1.965,-4.23 2.844,-6.683 0.875,-2.45 2.137,-5.703 2.797,-7.227 0.66,-1.527 1.023,-2.988 0.801,-3.25 -0.219,-0.262 -0.149,-0.719 0.152,-1.012 1.055,-1.023 2.621,-5.797 4.121,-12.566 0.438,-1.961 1.375,-4.969 2.09,-6.684 0.723,-1.738 1.164,-3.75 1.004,-4.543 -0.227,-1.113 -0.043,-1.488 0.828,-1.691 1.363,-0.316 4.41,0.187 4.977,0.82 0.66,0.746 3.39,-0.402 4.695,-1.976 1.523,-1.84 2.187,-4.442 1.242,-4.867 -0.808,-0.368 -0.332,-3.336 0.895,-5.559 0.406,-0.738 1.09,-2.566 1.519,-4.07 l 0.781,-2.735 5.547,-0.043 c 3.051,-0.023 7.598,-0.207 10.102,-0.41 5.609,-0.453 6.07,-0.371 7.617,1.391 1.18,1.34 1.406,1.402 4.551,1.261 2.262,-0.101 3.89,-0.468 5.133,-1.16 1.004,-0.55 2.847,-1.144 4.097,-1.316 1.254,-0.172 2.278,-0.555 2.278,-0.852 0,-0.297 0.547,-0.789 1.215,-1.097 0.667,-0.305 1.214,-0.973 1.214,-1.489 0,-0.511 0.442,-1.613 0.981,-2.445 0.539,-0.836 0.82,-1.965 0.625,-2.516 -0.403,-1.128 2.273,-4.343 3.613,-4.343 0.441,0 1.293,0.371 1.891,0.824 1.343,1.019 3.34,1.41 4.59,0.898 1.097,-0.453 2.871,-0.062 2.871,0.629 0,0.258 -0.45,0.836 -0.993,1.278 -0.867,0.703 -0.894,1.066 -0.23,2.812 0.656,1.719 0.625,2.219 -0.223,3.527 -0.539,0.84 -0.984,2.196 -0.988,3.016 0,1.192 -0.492,1.797 -2.43,3.004 -1.832,1.145 -2.269,1.652 -1.777,2.086 1.066,0.945 0.914,6.562 -0.207,7.644 -0.402,0.387 -0.137,0.672 0.895,0.958 2.179,0.609 3.796,3.558 3.25,5.937 -0.372,1.629 -0.688,3.203 -0.891,4.437 -0.027,0.165 -0.731,0.895 -1.567,1.622 l -1.511,1.32 3.219,1.547 -1.961,0.605 c -1.079,0.332 -1.801,0.789 -1.61,1.016 0.192,0.23 -0.496,0.937 -1.527,1.574 -1.719,1.059 -1.844,1.316 -1.477,3.047 0.223,1.039 0.543,2.254 0.715,2.699 0.219,0.567 -0.082,0.887 -0.988,1.063 -0.746,0.14 -1.176,0.496 -1,0.828 0.168,0.32 -0.024,0.679 -0.422,0.801 -0.465,0.14 -0.207,0.527 0.715,1.074 1.23,0.73 1.336,0.992 0.73,1.824 -0.39,0.531 -0.57,1.133 -0.402,1.328 0.164,0.199 -0.25,1.711 -0.926,3.363 -0.726,1.782 -1.015,3.215 -0.703,3.528 0.285,0.289 0.449,1.531 0.367,2.754 -0.086,1.226 0.133,3.754 0.489,5.621 0.542,2.875 0.492,3.601 -0.329,4.765 -0.531,0.758 -0.968,2.004 -0.968,2.774 0,0.863 -0.469,1.683 -1.231,2.14 -1.418,0.852 -2.367,5.036 -1.355,5.965 0.34,0.309 0.804,1.903 1.039,3.539 0.363,2.579 0.265,3.086 -0.731,3.817 -1.172,0.863 -1.113,1.258 0.602,3.969 0.332,0.527 0.43,1.167 0.219,1.417 -0.211,0.25 -0.086,0.594 0.281,0.758 0.375,0.172 0.504,0.785 0.293,1.403 -0.207,0.601 -0.059,1.746 0.332,2.539 0.637,1.289 0.539,1.64 -0.942,3.363 -1.585,1.844 -3.777,6.434 -5.546,11.613 -0.457,1.348 -0.84,4.578 -0.844,7.18 -0.012,4.973 -0.906,7.824 -2.988,9.512 -0.614,0.496 -2.012,2.113 -3.114,3.59 -2.398,3.222 -2.234,4.171 1.211,7.093 3.934,3.336 3.91,6.438 -0.086,10.172 -1.707,1.594 -1.781,1.84 -1.39,4.504 0.402,2.766 0.375,2.832 -1.414,3.77 -1.004,0.523 -2.098,0.953 -2.43,0.953 -1.258,0 -3.32,3.32 -3.234,5.199 0.085,1.863 -0.454,2.551 -3.028,3.879 -0.836,0.426 -1.379,1.394 -1.695,3.015 -0.469,2.399 -4.254,8.68 -5.731,9.512 -1.765,0.996 -2.859,2.934 -4.039,7.129 -0.8,2.863 -1.668,4.754 -2.468,5.379 l -1.235,0.961 2.156,2.621 c 2.5,3.043 2.563,3.328 0.954,4.395 -0.661,0.441 -1.379,1.523 -1.598,2.41 -0.215,0.883 -0.824,2.156 -1.352,2.828 -0.82,1.043 -0.847,1.5 -0.195,3.117 2.82,7.027 2.762,6.641 1.184,7.988 -2.868,2.45 -3.516,3.063 -3.516,3.332 0,0.153 -0.605,0.661 -1.344,1.133 -1.758,1.117 -2.843,4.246 -2.879,8.281 -0.019,2.555 -0.351,3.715 -1.543,5.446 -0.836,1.207 -1.519,2.812 -1.519,3.562 0,0.75 -0.449,2.11 -0.996,3.024 -0.586,0.968 -1.043,3.039 -1.11,4.996 -0.125,3.758 -0.543,4.75 -2.16,5.125 -0.613,0.144 -1.699,1.144 -2.41,2.226 -0.715,1.078 -1.758,2.071 -2.32,2.203 -0.559,0.137 -1.668,0.946 -2.465,1.805 -0.793,0.856 -1.633,1.559 -1.867,1.559 -0.231,0 -1.004,-0.453 -1.715,-1.008 z"
       style="fill:none;stroke:#000000;stroke-width:0.021;stroke-linecap:butt;stroke-linejoin:miter;stroke-miterlimit:4;stroke-dasharray:none;stroke-opacity:1"
       transform="scale(1.3333333)" />
  </g>
</svg>
